<?xml version="1.0" standalone="no"?>
<!DOCTYPE svg PUBLIC "-//W3C//DTD SVG 20010904//EN"
 "http://www.w3.org/TR/2001/REC-SVG-20010904/DTD/svg10.dtd">
<svg version="1.0" xmlns="http://www.w3.org/2000/svg"
 width="920.000000pt" height="1104.000000pt" viewBox="0 0 920.000000 1104.000000"
 preserveAspectRatio="xMidYMid meet">

<g transform="translate(0.000000,1104.000000) scale(0.100000,-0.100000)"
fill="#000000" stroke="none">
<path d="M4180 10540 l0 -140 -140 0 -140 0 0 -420 0 -420 -140 0 -140 0 0
-415 0 -414 -137 -3 -137 -3 0 -135 -1 -135 -137 -3 -138 -3 0 -139 0 -140
-140 0 -140 0 0 -140 0 -140 -140 0 -140 0 0 -140 0 -140 -420 0 -420 0 0
-140 0 -140 -415 0 -414 0 -3 -137 -3 -138 -137 -3 -138 -3 0 -414 0 -414 138
-3 137 -3 3 -137 3 -137 137 -3 137 -3 2 -60 c0 -33 2 -95 2 -137 l1 -78 135
0 134 0 3 -137 3 -138 137 -3 137 -3 3 -137 3 -137 137 -3 137 -3 3 -137 3
-137 138 -3 137 -3 0 -139 0 -140 280 0 280 0 0 -275 0 -274 138 -3 137 -3 3
-137 3 -137 137 -3 137 -3 1 -75 c1 -41 2 -103 3 -137 l1 -63 135 0 135 0 0
-140 0 -140 -275 0 c-213 0 -275 3 -276 13 -1 6 -2 68 -3 137 l-1 125 -137 3
-137 3 -3 137 -3 137 -137 3 -137 3 -3 137 -3 137 -275 0 -275 1 -3 137 -3
137 -694 0 -695 0 0 -415 0 -415 140 0 140 0 0 -140 0 -140 275 0 274 0 3
-138 3 -137 137 -3 138 -3 2 -277 3 -277 138 -3 137 -3 0 -274 0 -275 140 0
140 0 0 -140 0 -140 140 0 140 0 0 -140 0 -140 278 -2 277 -3 3 -138 3 -137
2644 0 2645 0 0 280 0 280 140 0 140 0 0 835 0 835 -140 0 -140 0 0 140 0 139
-137 3 -138 3 -2 645 c0 355 -2 666 -2 693 l-1 47 -135 0 -135 0 -2 418 -3
417 -137 3 -138 3 0 139 0 140 140 0 140 0 0 975 0 975 -140 0 -140 0 0 140 0
140 -140 0 -140 0 0 140 0 140 -280 0 -280 0 0 275 0 275 -22 1 c-13 0 -75 1
-138 2 l-115 2 -3 137 -3 137 -137 3 -137 3 -3 137 -3 137 -137 3 -137 3 0
135 0 135 -137 3 -138 3 0 139 0 140 -140 0 -140 0 0 140 0 140 -140 0 -140 0
0 140 0 140 -420 0 -420 0 0 -140z m560 -280 l0 -140 140 0 140 0 0 -140 0
-140 140 0 140 0 0 -140 0 -140 140 0 140 0 0 -140 0 -140 140 0 140 0 0 -140
0 -140 135 0 135 0 0 -140 0 -140 140 0 140 0 0 -275 0 -275 280 0 280 0 0
-140 0 -139 138 -3 137 -3 3 -137 3 -138 139 0 140 0 0 -695 0 -695 -140 0
-140 0 0 -280 0 -280 -140 0 -140 0 0 -280 0 -280 140 0 140 0 0 140 0 140
140 0 140 0 0 -280 0 -280 -140 0 -140 0 0 -140 0 -140 275 0 275 0 0 -553 c0
-305 3 -743 7 -975 l6 -422 -141 0 -142 0 -2 -416 -3 -416 -135 -1 -135 -2 -3
-138 -3 -137 -139 0 -140 0 0 -140 0 -140 -280 0 -280 0 0 835 0 836 -137 -3
-138 -3 -1 -822 c-1 -453 -2 -827 -3 -833 -1 -6 -100 -10 -276 -10 l-275 0 0
835 0 835 -140 0 -140 0 0 -835 0 -835 -280 0 -279 0 -3 138 -3 137 -137 3
-137 3 -3 137 -3 137 -130 2 c-71 1 -133 3 -137 3 -4 0 -9 188 -10 417 l-3
418 -135 0 -135 0 0 415 0 415 698 3 697 2 0 140 0 140 555 0 556 0 -3 138 -3
137 -135 0 -135 0 0 140 0 140 135 0 135 0 3 137 3 138 -139 0 -138 0 1 -137
0 -138 -277 -3 -277 -2 -3 -138 -3 -137 -275 0 -275 0 -3 -138 -3 -137 -699 0
-700 0 0 140 0 140 -135 0 -134 0 -3 138 -3 137 -137 3 -138 3 -2 277 -3 276
-130 2 c-71 1 -196 2 -277 3 l-148 1 0 140 0 140 -140 0 -141 0 2 133 1 132
-141 3 -141 3 0 139 0 140 -140 0 -140 0 0 140 0 140 -140 0 -140 0 0 140 0
139 -137 3 -138 3 0 135 0 135 -138 3 -137 3 0 138 0 138 128 -2 c70 0 133 1
140 3 9 3 12 40 12 138 l0 134 415 0 415 0 0 140 0 140 420 0 420 0 2 278 3
277 138 3 137 3 0 139 0 140 140 0 140 0 0 135 0 135 278 2 277 3 -1 418 -2
417 139 0 139 0 2 418 3 417 138 3 137 3 0 139 0 140 140 0 140 0 0 -140z
m-2790 -6420 l0 -140 139 0 139 0 -1 -135 -2 -134 140 -3 140 -3 5 -140 5
-139 132 1 132 1 3 -140 3 -140 138 1 137 2 0 -696 0 -695 -275 0 -275 0 0
280 0 280 -140 0 -140 0 0 275 c0 151 -3 276 -7 276 -5 1 -66 2 -138 3 l-130
1 -5 280 -5 280 -132 -1 -133 -1 0 139 0 138 -420 0 -420 0 0 275 0 275 555 0
555 0 0 -140z m1670 -1250 l0 -280 140 0 140 0 0 -280 0 -280 140 0 140 0 0
-275 0 -276 -137 3 -138 3 -1 125 c-1 69 -2 131 -3 138 -1 9 -63 12 -276 12
l-275 0 0 695 0 695 135 0 135 0 0 -280z m4740 -415 l0 -695 -140 0 -140 0 0
-140 0 -140 -275 0 -275 0 0 275 0 274 138 3 137 3 3 278 2 277 140 0 140 0 0
280 0 280 135 0 135 0 0 -695z"/>
<path d="M5298 7878 c-2 -7 -4 -69 -4 -138 l1 -125 143 -3 142 -3 0 -139 0
-139 -142 -3 -143 -3 0 -135 0 -135 420 0 420 0 3 418 2 417 -419 0 c-326 0
-420 -3 -423 -12z"/>
<path d="M5300 6080 l0 -140 -140 0 -140 0 0 -140 0 -140 278 2 277 3 0 275 0
275 -137 3 -138 3 0 -141z"/>
<path d="M3340 5800 l0 -140 140 0 140 0 0 -140 0 -140 -140 0 -140 0 0 -140
0 -140 420 0 420 0 0 420 0 420 -420 0 -420 0 0 -140z"/>
<path d="M6690 4960 l0 -140 -140 0 -140 0 0 -140 0 -140 140 0 140 0 0 140 0
140 140 0 140 0 0 140 0 140 -140 0 -140 0 0 -140z"/>
<path d="M6970 4400 l0 -140 -280 0 -280 0 0 -133 0 -134 212 -6 c116 -4 242
-7 280 -7 l68 0 0 140 0 140 140 0 140 0 0 140 0 140 -140 0 -140 0 0 -140z"/>
</g>
</svg>
